<svg id="icons" enable-background="new 0 0 64 64" height="512" viewBox="0 0 64 64" width="512" xmlns="http://www.w3.org/2000/svg"><path d="m1.002 55.504h61.996c.553 0 1-.447 1-1v-41.006c0-.552-.447-1-1-1h-1.999v-3.002c0-.552-.447-1-1-1h-23.997c-1.642 0-3.088.806-4 2.032-.912-1.226-2.358-2.032-4-2.032h-24.001c-.553 0-1 .448-1 1 0 .026.013.047.015.073v2.929h-2.014c-.553 0-1 .448-1 1v41.006c0 .553.447 1 1 1zm60.996-41.006v39.006h-28.811c.414-1.161 1.514-2 2.815-2h23.997c.553 0 1-.447 1-1v-36.006zm-25.996-4.002h22.997v39.008h-22.997c-1.13 0-2.162.391-3 1.025v-37.031c0-1.655 1.346-3.002 3-3.002zm-5 3.002v37.031c-.838-.635-1.87-1.025-3-1.025h-22.986v-39.008h22.986c1.654 0 3 1.347 3 3.002zm-29 1h1.014v35.934c-.002.025-.015.047-.015.072 0 .553.447 1 1 1h24.001c1.302 0 2.401.839 2.815 2h-28.815z"/><path d="m27.002 13.494h-18.002c-.553 0-1 .448-1 1v13.003c0 .552.447 1 1 1h18.002.001c.118 0 .235-.028.349-.071.039-.014.071-.034.107-.053.041-.021.085-.034.124-.062.022-.016.034-.041.055-.059.054-.045.098-.095.141-.15.038-.049.074-.097.102-.152.029-.056.048-.114.066-.176.019-.066.034-.129.04-.198.002-.028.016-.051.016-.08v-13.002c-.001-.552-.448-1-1.001-1zm-17.002 2h16.002v8.882l-3.187-4.462c-.032-.045-.079-.071-.117-.109-.04-.041-.067-.09-.115-.124-.01-.007-.022-.008-.033-.015-.06-.04-.125-.06-.19-.085-.057-.022-.109-.051-.167-.063-.065-.013-.13-.005-.196-.005-.062 0-.122-.006-.182.005-.062.012-.117.042-.176.065-.063.025-.127.044-.185.083-.011.007-.022.008-.033.015-.048.035-.076.084-.116.125-.038.038-.084.063-.116.108l-2.663 3.729-1.204-1.721c-.035-.051-.086-.081-.129-.123-.04-.041-.068-.089-.117-.124-.007-.005-.015-.005-.021-.009-.066-.044-.142-.067-.216-.094-.049-.018-.094-.046-.145-.056-.063-.012-.127-.003-.191-.003s-.128-.009-.191.003c-.05.01-.096.038-.145.056-.074.027-.148.05-.216.094-.007.005-.015.005-.021.01-.048.034-.076.082-.116.122-.043.042-.094.073-.13.124l-3.202 4.574h-2.482zm4.922 11.003 1.58-2.257.791 1.13-.806 1.127zm7.08-4.282 3.058 4.282h-6.115z"/><path d="m13.031 19.495c.552 0 1-.448 1-1s-.448-1-1-1h-.011c-.552 0-.994.448-.994 1s.453 1 1.005 1z"/><path d="m27.002 31.496h-18.002c-.553 0-1 .448-1 1v13.003c0 .553.447 1 1 1h18.002.001c.118 0 .235-.027.349-.07.039-.015.072-.036.109-.055.04-.021.084-.034.122-.062.022-.016.033-.04.054-.057.054-.046.099-.097.142-.152.038-.05.074-.097.102-.15.029-.057.048-.115.066-.177.02-.065.034-.129.04-.197.002-.028.016-.052.016-.08v-13.003c-.001-.552-.448-1-1.001-1zm-17.002 2h16.002v8.883l-3.187-4.463c-.033-.046-.08-.072-.119-.111s-.066-.088-.113-.121c-.01-.007-.021-.008-.032-.015-.062-.04-.129-.062-.197-.088-.054-.021-.104-.05-.161-.061-.065-.013-.131-.005-.197-.005-.062 0-.121-.007-.182.005-.059.011-.112.041-.17.063-.065.025-.131.046-.19.085-.01.007-.022.008-.032.015-.048.034-.074.082-.114.122-.038.038-.086.064-.118.11l-2.663 3.729-1.204-1.721c-.035-.05-.085-.079-.127-.121-.041-.041-.069-.091-.119-.125-.007-.005-.015-.005-.021-.01-.066-.044-.14-.065-.213-.093-.05-.018-.097-.047-.147-.057-.063-.012-.127-.003-.191-.003s-.128-.009-.19.003c-.052.01-.099.039-.148.057-.073.027-.146.049-.212.093-.008.005-.016.005-.022.01-.049.034-.077.083-.118.124-.042.042-.093.071-.128.122l-3.202 4.574h-2.485zm4.922 11.003 1.58-2.257.791 1.13-.806 1.127zm7.08-4.282 3.058 4.282h-6.115z"/><path d="m13.031 37.497c.552 0 1-.447 1-1s-.448-1-1-1h-.011c-.552 0-.994.447-.994 1s.453 1 1.005 1z"/><path d="m37.021 28.497h18.002.001c.118 0 .235-.028.349-.071.039-.014.071-.034.107-.053.041-.021.085-.034.124-.062.022-.016.034-.041.055-.059.054-.045.098-.095.141-.15.038-.049.074-.097.102-.152.029-.056.048-.114.066-.176.019-.066.034-.129.04-.198.002-.028.016-.051.016-.08v-13.002c0-.552-.447-1-1-1h-18.003c-.553 0-1 .448-1 1v13.003c0 .552.448 1 1 1zm7.502-4.257.791 1.13-.806 1.127h-1.565zm5.5-2.025 3.058 4.282h-6.115zm-12.002-6.721h16.002v8.882l-3.187-4.462c-.032-.046-.08-.072-.118-.11-.039-.04-.066-.089-.114-.123-.01-.007-.022-.008-.032-.014-.061-.04-.127-.061-.193-.087-.056-.021-.107-.051-.165-.062-.064-.013-.13-.005-.196-.005-.062 0-.122-.006-.182.005-.062.012-.116.042-.175.065-.063.025-.128.044-.186.083-.011.007-.022.008-.033.015-.048.035-.076.084-.116.125-.038.038-.084.063-.116.108l-2.663 3.729-1.204-1.721c-.035-.05-.086-.08-.128-.122-.041-.041-.069-.09-.118-.124-.007-.005-.015-.005-.021-.01-.066-.044-.141-.066-.214-.093-.05-.019-.096-.047-.146-.057-.063-.012-.127-.003-.191-.003s-.128-.009-.191.003c-.051.01-.097.038-.146.057-.073.027-.147.049-.214.093-.007.005-.015.005-.021.01-.048.034-.076.082-.116.122-.043.042-.094.073-.13.124l-3.202 4.574h-2.48v-11.002z"/><path d="m41.053 19.495c.552 0 1-.448 1-1s-.448-1-1-1h-.011c-.552 0-.994.448-.994 1s.452 1 1.005 1z"/><path d="m37.021 46.499h18.002.001c.118 0 .235-.027.349-.07.039-.015.072-.036.109-.055.04-.021.084-.034.122-.062.022-.016.033-.04.054-.057.054-.046.099-.097.142-.152.038-.05.074-.097.102-.15.029-.057.048-.115.066-.177.02-.065.034-.129.04-.197.002-.028.016-.052.016-.08v-13.003c0-.552-.447-1-1-1h-18.003c-.553 0-1 .448-1 1v13.003c0 .553.448 1 1 1zm7.502-4.257.791 1.13-.806 1.127h-1.565zm5.5-2.025 3.058 4.282h-6.115zm-12.002-6.721h16.002v8.883l-3.187-4.463c-.033-.047-.081-.073-.12-.112s-.065-.087-.112-.12c-.01-.007-.021-.008-.031-.014-.063-.042-.131-.063-.2-.09-.053-.021-.104-.049-.158-.06-.065-.013-.132-.005-.198-.005-.062 0-.121-.007-.182.005-.059.011-.112.041-.169.063-.066.025-.132.046-.191.085-.01.007-.022.008-.032.015-.048.034-.074.082-.114.122-.038.038-.086.064-.118.11l-2.663 3.729-1.204-1.721c-.034-.05-.085-.079-.126-.12s-.07-.092-.12-.126c-.007-.005-.016-.005-.022-.01-.064-.043-.138-.065-.21-.092-.051-.019-.098-.048-.15-.058-.063-.012-.126-.003-.19-.003s-.128-.009-.19.003c-.053.01-.1.039-.15.058-.072.026-.146.049-.21.092-.007.005-.016.005-.022.01-.049.034-.077.083-.118.124-.042.042-.093.071-.128.122l-3.202 4.574h-2.48v-11.001z"/><path d="m41.053 37.497c.552 0 1-.447 1-1s-.448-1-1-1h-.011c-.552 0-.994.447-.994 1s.452 1 1.005 1z"/></svg>