<svg id="Capa_1" enable-background="new 0 0 512 512" height="512" viewBox="0 0 512 512" width="512" xmlns="http://www.w3.org/2000/svg"><path d="m498.78 303.215c-8.513-8.686-30.422-27.419-64.477-32.045l55.564-55.564c5.288-5.288 5.288-13.892 0-19.181l-21.921-21.921c-5.29-5.289-13.893-5.289-19.182 0l-118.761 118.761c-4.958-3.768-11.291-7.918-18.929-11.656 11.004-14.489 18.623-31.548 22.695-50.91 17.927-3.208 37.81-15.148 44.963-34.045 2.24-5.919 3.51-12.093 3.795-18.386 1.605-1.238 3.151-2.576 4.613-4.033 9.242-9.212 14.19-21.477 13.93-34.535-.485-24.428-19.947-44.784-44.351-46.345l-.526-.03c-5.41-.282-9.693-4.65-9.749-9.946-.025-2.247-.152-4.523-.376-6.766-1.829-18.276-10.375-35.222-24.063-47.717-13.677-12.483-31.326-19.469-49.7-19.67-4.275-.048-8.565.272-12.778.947-17.682-6.752-36.312-10.173-55.409-10.173-19.094 0-37.724 3.422-55.412 10.175-4.224-.677-8.519-.997-12.8-.951-18.374.201-36.024 7.187-49.7 19.67-13.69 12.495-22.235 29.441-24.064 47.717-.225 2.248-.351 4.526-.375 6.768-.058 5.294-4.341 9.662-9.748 9.944l-.573.033c-24.36 1.558-43.821 21.914-44.307 46.343-.259 13.058 4.688 25.323 13.931 34.535 1.462 1.457 3.008 2.793 4.613 4.031.285 6.295 1.555 12.469 3.795 18.388 7.115 18.799 26.919 30.744 44.776 34.008 8.56 40.556 33.108 71.565 69.588 87.675.986.435 2.015.642 3.028.642 2.882 0 5.631-1.67 6.871-4.476 1.675-3.792-.042-8.224-3.834-9.899-33.35-14.728-55.335-43.829-61.903-81.943-.584-3.385-3.39-5.942-6.815-6.209-14.266-1.11-32.257-10.806-37.672-25.111-.616-1.627-1.124-3.282-1.543-4.956 4.39 1.196 8.982 1.771 13.68 1.664 14.955-.347 29.06-7.946 37.731-20.327 5.681-8.111 8.49-18.134 8.124-28.984-.023-.687-.035-1.376-.035-2.069 0-13.051 4.012-25.531 11.601-36.089 2.42-3.366 1.652-8.057-1.714-10.476-3.368-2.42-8.058-1.653-10.476 1.714-9.436 13.127-14.424 28.636-14.424 44.852 0 .862.015 1.719.043 2.574.255 7.572-1.618 14.442-5.417 19.867-5.943 8.486-15.582 13.693-25.783 13.93-8.921.218-17.323-3.144-23.639-9.439-6.315-6.294-9.696-14.677-9.518-23.603.331-16.688 13.621-30.595 30.232-31.657l.417-.024c13.303-.693 23.836-11.575 23.98-24.775.019-1.8.121-3.629.302-5.435 3.04-30.376 28.4-53.535 58.989-53.87 4.033-.045 8.06.315 11.998 1.068 1.404.269 2.854.13 4.182-.398 16.509-6.565 33.961-9.893 51.869-9.893 17.912 0 35.362 3.327 51.864 9.889 1.326.527 2.775.666 4.18.398 3.93-.75 7.962-1.106 11.979-1.064 30.591.333 55.951 23.493 58.991 53.868.181 1.804.282 3.634.302 5.436.143 13.199 10.676 24.081 23.983 24.774l.391.023c16.634 1.064 29.924 14.97 30.256 31.658.177 8.926-3.204 17.309-9.519 23.603s-14.671 9.652-23.639 9.439c-10.201-.237-19.839-5.445-25.782-13.931-3.799-5.424-5.673-12.294-5.417-19.873.028-.852.043-1.708.043-2.568 0-42.414-34.506-76.919-76.919-76.919-14.54 0-28.513 4.02-40.723 11.671-12.209-7.652-26.181-11.671-40.725-11.671-11.553 0-22.663 2.5-33.022 7.432-3.743 1.782-5.333 6.261-3.551 10.004s6.261 5.333 10.004 3.551c8.328-3.964 17.267-5.974 26.57-5.974 13.118 0 25.657 4.063 36.267 11.751.185.136.377.264.575.384.602.364 1.244.637 1.906.817.003.001.009.001.013.004.768.208 1.557.291 2.34.251.006-.001.01-.001.015-.001.732-.038 1.461-.184 2.162-.438.005-.002.01-.003.015-.005.553-.201 1.085-.469 1.586-.801.128-.084.253-.172.376-.263 10.595-7.653 23.108-11.698 36.193-11.698 34.135 0 61.907 27.771 61.907 61.907 0 .694-.013 1.385-.035 2.068-.366 10.851 2.443 20.874 8.125 28.986 8.671 12.381 22.776 19.979 37.731 20.327.381.009.761.013 1.142.013 4.3 0 8.504-.58 12.538-1.679-.42 1.674-.929 3.33-1.545 4.957-5.444 14.385-23.506 24.071-37.824 25.125-3.436.253-6.26 2.814-6.846 6.211-3.572 20.706-11.453 38.521-23.429 53.049-10.233-3.355-22.055-5.607-35.39-5.607-43.049 0-70.382 23.147-80.135 33.098-3.928 4.007-6.092 9.314-6.092 14.945v178.783c0 5.847 3.274 11.045 8.544 13.567 2.091 1 4.312 1.491 6.516 1.491 3.354 0 6.668-1.139 9.417-3.354 12.264-9.886 32.932-21.67 61.75-21.67 24.914 0 43.595 9.033 54.878 16.61 6.209 4.169 14.154 4.58 20.735 1.071 1.112-.593 2.146-1.287 3.108-2.057.961.77 1.995 1.465 3.108 2.058 6.582 3.507 14.526 3.098 20.735-1.071 11.283-7.577 29.964-16.61 54.877-16.61 28.819 0 49.487 11.784 61.75 21.67 2.749 2.216 6.063 3.354 9.417 3.354 2.204 0 4.426-.492 6.516-1.492 5.27-2.521 8.543-7.719 8.543-13.566v-178.786c-.001-5.629-2.164-10.937-6.091-14.944zm-40.424-117.072 19.871 19.871-144.93 144.931c-2.655 2.654-6.183 4.115-9.936 4.115s-7.282-1.461-9.935-4.115c-5.478-5.478-5.478-14.393 0-19.871zm31.459 310.815c-14.145-11.402-37.973-24.994-71.171-24.994-28.694 0-50.232 10.418-63.247 19.159-2.331 1.567-4.484.722-5.303.286-.801-.427-2.662-1.715-2.662-4.455v-90.102c0-4.146-3.36-7.506-7.506-7.506s-7.506 3.361-7.506 7.506v90.102c0 2.74-1.862 4.029-2.663 4.455-.816.436-2.972 1.281-5.303-.286-13.016-8.74-34.554-19.159-63.248-19.159-33.196 0-57.025 13.592-71.214 24.978v-178.783c0-1.677.639-3.252 1.8-4.436 8.426-8.597 32.057-28.594 69.414-28.594 26.586 0 46.257 10.266 58.072 18.864l-16.466 16.466c-4.87 4.87-7.64 11.053-8.324 17.42h-72.439c-4.146 0-7.506 3.361-7.506 7.506s3.361 7.506 7.506 7.506h74.797c.404.905.856 1.794 1.357 2.662l-9.397 9.397c-2.931 2.931-2.931 7.684 0 10.615 1.466 1.466 3.388 2.199 5.308 2.199s3.842-.733 5.308-2.199l9.391-9.391c4.375 2.539 9.357 3.898 14.55 3.898 7.762 0 15.061-3.023 20.551-8.513l76.404-76.404c36.382.587 59.443 20.099 67.743 28.566 1.16 1.184 1.799 2.76 1.799 4.436z"/><path d="m238.65 208.556c2.328-3.43 1.434-8.098-1.996-10.426-3.43-2.327-8.098-1.433-10.426 1.996-4.988 7.35-13.258 11.738-22.123 11.738s-17.135-4.388-22.123-11.738c-2.329-3.431-6.996-4.323-10.426-1.996-3.431 2.328-4.324 6.996-1.996 10.426 7.785 11.472 20.7 18.321 34.546 18.321 13.845-.001 26.759-6.85 34.544-18.321z"/><path d="m173.343 138.732c0-4.146-3.361-7.506-7.506-7.506h-35.512c-4.146 0-7.506 3.361-7.506 7.506s3.361 7.506 7.506 7.506h11.899c-5.117 2.563-8.638 7.84-8.638 13.953 0 8.622 6.99 15.612 15.612 15.612s15.612-6.99 15.612-15.612c0-6.112-3.521-11.39-8.638-13.953h9.665c4.146.001 7.506-3.36 7.506-7.506z"/><path d="m284.274 138.732c0-4.146-3.36-7.506-7.506-7.506h-35.512c-4.146 0-7.506 3.361-7.506 7.506s3.361 7.506 7.506 7.506h10.782c-5.117 2.563-8.638 7.84-8.638 13.953 0 8.622 6.99 15.612 15.612 15.612s15.612-6.99 15.612-15.612c0-6.112-3.521-11.39-8.638-13.953h10.782c4.146.001 7.506-3.36 7.506-7.506z"/><circle cx="403.405" cy="391.613" r="8.222"/><circle cx="435.051" cy="391.613" r="8.222"/><path d="m251.459 369.51h-29.105c-4.146 0-7.506 3.361-7.506 7.506s3.361 7.506 7.506 7.506h29.105c4.146 0 7.506-3.361 7.506-7.506s-3.36-7.506-7.506-7.506z"/><path d="m468.333 370.826c-.053-.003-.105-.006-.157-.009-3.048-.159-5.473-2.616-5.507-5.668-.007-.658-.043-1.323-.11-1.993-1.111-11.098-10.52-19.674-21.673-19.796-1.505-.016-2.975.119-4.397.391-5.52-2.195-11.539-3.402-17.84-3.402-6.302 0-12.321 1.209-17.841 3.404-1.424-.272-2.897-.409-4.404-.392-11.153.122-20.562 8.698-21.673 19.796-.067.67-.103 1.335-.11 1.993-.033 3.052-2.459 5.509-5.507 5.668-.052.003-.105.006-.157.009-6.698.428-12.04 6.024-12.173 12.734-.135 6.797 4.942 12.422 11.502 13.188-.057 1.056-.093 2.118-.093 3.189 0 30.036 22.633 54.473 50.453 54.473s50.454-24.437 50.454-54.473c0-1.071-.037-2.133-.093-3.189 6.56-.766 11.637-6.391 11.502-13.188-.136-6.711-5.478-12.306-12.176-12.735zm-49.689 68.571c-19.542 0-35.44-17.702-35.44-39.46s15.898-39.46 35.44-39.46 35.441 17.701 35.441 39.46-15.899 39.46-35.441 39.46z"/><path d="m425.984 409.381c-2.047 1.232-4.653 1.911-7.34 1.911s-5.294-.679-7.341-1.911c-3.552-2.139-8.163-.993-10.303 2.559-2.138 3.552-.992 8.164 2.56 10.302 4.415 2.658 9.63 4.063 15.084 4.063 5.455 0 10.671-1.405 15.085-4.063 3.552-2.139 4.696-6.751 2.558-10.303-2.14-3.552-6.751-4.696-10.303-2.558z"/></svg>